<svg version="1.1" id="Layer_1" xmlns="http://www.w3.org/2000/svg" xmlns:xlink="http://www.w3.org/1999/xlink" x="0px" y="0px"
	 width="100%" viewBox="0 0 449 216" enable-background="new 0 0 449 216" xml:space="preserve">
<path fill="#010101" opacity="1.000000" stroke="none" 
	d="
M306.000000,217.000000 
	C204.000031,217.000000 102.500076,217.000000 1.000082,217.000000 
	C1.000054,145.000061 1.000054,73.000122 1.000027,1.000140 
	C150.666550,1.000093 300.333099,1.000093 449.999756,1.000046 
	C449.999817,72.999855 449.999817,144.999710 449.999908,216.999786 
	C402.166656,217.000000 354.333344,217.000000 306.000000,217.000000 
M97.502762,137.010956 
	C114.265533,137.010956 131.028305,137.010956 147.641937,137.010956 
	C147.641937,128.354584 147.641937,120.219849 147.641937,112.085106 
	C147.288635,111.723679 146.935333,111.362244 146.582047,111.000816 
	C141.904434,133.677612 126.227753,137.012466 107.269241,134.804642 
	C107.269241,125.870674 107.269241,116.984375 107.269241,108.117790 
	C120.755310,107.302101 123.843689,116.990623 126.865974,126.718506 
	C126.865974,113.567848 126.865974,100.417191 126.865974,87.266533 
	C120.092766,104.955223 118.213089,106.809006 107.197403,105.887306 
	C107.197403,96.470451 107.197403,87.035110 107.197403,76.318810 
	C115.671684,77.470909 124.103317,77.609703 131.876312,79.942825 
	C140.535446,82.541924 142.399857,91.633636 146.129105,98.873436 
	C146.129105,91.305992 146.129105,83.738548 146.129105,76.380768 
	C124.366928,76.380768 102.842728,76.380768 81.318527,76.380768 
	C90.839935,78.624908 93.401138,80.385559 93.567764,87.089653 
	C93.886284,99.904945 93.889046,112.737717 93.608650,125.554161 
	C93.470589,131.864777 90.236809,134.567368 83.822594,135.174988 
	C82.891365,135.263214 81.990578,135.672958 81.075706,135.933929 
	C81.132492,136.292786 81.189270,136.651627 81.246056,137.010483 
	C86.332390,137.010483 91.418732,137.010483 97.502762,137.010956 
M209.246628,76.951744 
	C215.005753,78.392410 220.596222,80.087997 222.251923,86.866684 
	C222.677307,88.608253 223.066986,90.411850 223.084335,92.190742 
	C223.169296,100.894928 223.122818,109.600395 223.122818,119.424843 
	C209.408600,105.303001 196.670502,92.167160 183.896866,79.065971 
	C182.762238,77.902260 181.426270,76.106911 180.132645,76.061493 
	C172.173615,75.781998 164.199860,75.921341 156.231018,75.921341 
	C157.564346,77.264221 158.952942,77.567032 160.338531,77.883095 
	C166.077972,79.192322 168.759949,81.990234 168.860306,87.890228 
	C169.055801,99.382370 169.127213,110.886375 168.821625,122.374062 
	C168.597595,130.795181 165.147766,134.046570 156.636566,135.168365 
	C155.978821,135.255066 155.369263,135.707352 153.610168,136.493317 
	C165.550064,136.493317 176.162231,136.493317 186.774399,136.493317 
	C185.905472,135.494827 185.000595,135.211060 184.079910,135.143860 
	C174.418884,134.438904 171.030823,131.198532 170.687897,121.559799 
	C170.409653,113.738960 170.573853,105.902199 170.552490,98.072472 
	C170.540543,93.690704 170.550339,89.308868 170.550339,85.580086 
	C188.741714,102.846672 206.848740,120.033188 225.060822,137.319443 
	C225.060822,136.017471 225.060623,134.423096 225.060852,132.828735 
	C225.062668,119.833435 224.949814,106.836769 225.103714,93.843269 
	C225.221268,83.918663 229.212494,77.853745 237.914566,77.314362 
	C238.277557,77.291862 238.618408,76.912354 239.925674,76.118729 
	C229.002182,76.118729 219.154648,76.118729 209.246628,76.951744 
M368.178009,103.308907 
	C363.723358,97.109406 359.176300,90.973541 354.846008,84.688354 
	C351.884277,80.389626 353.290619,77.765244 358.577454,77.258827 
	C360.103912,77.112625 361.637482,77.040970 363.167755,76.935143 
	C363.136749,76.746727 363.105713,76.558319 363.074677,76.369904 
	C350.154877,76.369904 337.235077,76.369904 324.315277,76.369904 
	C334.066315,78.700592 335.981537,79.592361 340.022766,85.007103 
	C345.879852,92.854935 351.657074,100.763596 357.359192,108.724533 
	C358.258820,109.980568 359.013855,111.625679 359.092346,113.129684 
	C359.308746,117.275726 359.277954,121.449570 359.074463,125.599144 
	C358.768036,131.847626 355.551086,134.886108 349.343536,135.169998 
	C347.553833,135.251846 345.767792,135.414032 343.980072,135.539383 
	C344.020752,135.878601 344.061432,136.217804 344.102112,136.557007 
	C358.568848,136.557007 373.035553,136.557007 387.502289,136.557007 
	C385.859253,135.336441 384.166992,135.248154 382.473846,135.182449 
	C376.587189,134.953964 373.629730,133.000839 372.766602,127.292755 
	C371.724121,120.398415 371.056427,113.359268 373.144012,107.809944 
	C371.354828,106.242676 369.998444,105.054512 368.178009,103.308907 
M278.052765,134.537308 
	C278.814301,135.806000 279.575806,137.074707 281.110626,139.631729 
	C283.773102,132.664658 285.874054,127.166916 287.639008,122.548370 
	C286.668488,122.113968 285.477081,121.972267 285.142700,121.361427 
	C283.875488,119.046501 282.892395,116.576637 281.791290,114.170105 
	C277.734253,105.303215 273.596649,96.472221 269.636383,87.562347 
	C266.416138,80.317345 268.063568,77.703079 275.780334,77.290245 
	C276.764191,77.237602 277.736511,76.969894 278.714172,76.801811 
	C278.678436,76.664551 278.642670,76.527283 278.606934,76.390022 
	C266.813995,76.390022 255.021027,76.390022 243.228058,76.390022 
	C250.269928,77.167076 253.675781,81.729164 256.313538,87.506927 
	C263.381775,102.989243 270.598602,118.403694 278.052765,134.537308 
M375.353241,76.979065 
	C376.165833,77.087776 377.018707,77.074326 377.783875,77.326736 
	C380.820557,78.328407 384.633911,78.652893 386.585236,80.716721 
	C388.047577,82.263329 387.099854,86.088585 387.180145,87.889351 
	C392.938599,84.181595 399.581421,79.904457 405.471527,76.111946 
	C396.145599,76.111946 385.743561,76.111946 375.353241,76.979065 
M301.880371,86.354805 
	C301.427917,88.676140 300.975433,90.997467 300.356384,94.173279 
	C305.155243,86.578568 308.294037,78.317337 317.694000,76.306366 
	C309.554230,76.306366 301.414429,76.306366 293.274658,76.306366 
	C297.604156,78.301399 301.786163,79.945770 301.880371,86.354805 
z"/>
<path fill="#FAFAFA" opacity="1.000000" stroke="none" 
	d="
M97.003914,137.010712 
	C91.418732,137.010483 86.332390,137.010483 81.246056,137.010483 
	C81.189270,136.651627 81.132492,136.292786 81.075706,135.933929 
	C81.990578,135.672958 82.891365,135.263214 83.822594,135.174988 
	C90.236809,134.567368 93.470589,131.864777 93.608650,125.554161 
	C93.889046,112.737717 93.886284,99.904945 93.567764,87.089653 
	C93.401138,80.385559 90.839935,78.624908 81.318527,76.380768 
	C102.842728,76.380768 124.366928,76.380768 146.129105,76.380768 
	C146.129105,83.738548 146.129105,91.305992 146.129105,98.873436 
	C142.399857,91.633636 140.535446,82.541924 131.876312,79.942825 
	C124.103317,77.609703 115.671684,77.470909 107.197403,76.318810 
	C107.197403,87.035110 107.197403,96.470451 107.197403,105.887306 
	C118.213089,106.809006 120.092766,104.955223 126.865974,87.266533 
	C126.865974,100.417191 126.865974,113.567848 126.865974,126.718506 
	C123.843689,116.990623 120.755310,107.302101 107.269241,108.117790 
	C107.269241,116.984375 107.269241,125.870674 107.269241,134.804642 
	C126.227753,137.012466 141.904434,133.677612 146.582047,111.000816 
	C146.935333,111.362244 147.288635,111.723679 147.641937,112.085106 
	C147.641937,120.219849 147.641937,128.354584 147.641937,137.010956 
	C131.028305,137.010956 114.265533,137.010956 97.003914,137.010712 
z"/>
<path fill="#F4F4F4" opacity="1.000000" stroke="none" 
	d="
M209.276886,76.535233 
	C219.154648,76.118729 229.002182,76.118729 239.925674,76.118729 
	C238.618408,76.912354 238.277557,77.291862 237.914566,77.314362 
	C229.212494,77.853745 225.221268,83.918663 225.103714,93.843269 
	C224.949814,106.836769 225.062668,119.833435 225.060852,132.828735 
	C225.060623,134.423096 225.060822,136.017471 225.060822,137.319443 
	C206.848740,120.033188 188.741714,102.846672 170.550339,85.580086 
	C170.550339,89.308868 170.540543,93.690704 170.552490,98.072472 
	C170.573853,105.902199 170.409653,113.738960 170.687897,121.559799 
	C171.030823,131.198532 174.418884,134.438904 184.079910,135.143860 
	C185.000595,135.211060 185.905472,135.494827 186.774399,136.493317 
	C176.162231,136.493317 165.550064,136.493317 153.610168,136.493317 
	C155.369263,135.707352 155.978821,135.255066 156.636566,135.168365 
	C165.147766,134.046570 168.597595,130.795181 168.821625,122.374062 
	C169.127213,110.886375 169.055801,99.382370 168.860306,87.890228 
	C168.759949,81.990234 166.077972,79.192322 160.338531,77.883095 
	C158.952942,77.567032 157.564346,77.264221 156.231018,75.921341 
	C164.199860,75.921341 172.173615,75.781998 180.132645,76.061493 
	C181.426270,76.106911 182.762238,77.902260 183.896866,79.065971 
	C196.670502,92.167160 209.408600,105.303001 223.122818,119.424843 
	C223.122818,109.600395 223.169296,100.894928 223.084335,92.190742 
	C223.066986,90.411850 222.677307,88.608253 222.251923,86.866684 
	C220.596222,80.087997 215.005753,78.392410 209.276886,76.535233 
z"/>
<path fill="#F8F8F8" opacity="1.000000" stroke="none" 
	d="
M368.410034,103.587631 
	C369.998444,105.054512 371.354828,106.242676 373.144012,107.809944 
	C371.056427,113.359268 371.724121,120.398415 372.766602,127.292755 
	C373.629730,133.000839 376.587189,134.953964 382.473846,135.182449 
	C384.166992,135.248154 385.859253,135.336441 387.502289,136.557007 
	C373.035553,136.557007 358.568848,136.557007 344.102112,136.557007 
	C344.061432,136.217804 344.020752,135.878601 343.980072,135.539383 
	C345.767792,135.414032 347.553833,135.251846 349.343536,135.169998 
	C355.551086,134.886108 358.768036,131.847626 359.074463,125.599144 
	C359.277954,121.449570 359.308746,117.275726 359.092346,113.129684 
	C359.013855,111.625679 358.258820,109.980568 357.359192,108.724533 
	C351.657074,100.763596 345.879852,92.854935 340.022766,85.007103 
	C335.981537,79.592361 334.066315,78.700592 324.315277,76.369904 
	C337.235077,76.369904 350.154877,76.369904 363.074677,76.369904 
	C363.105713,76.558319 363.136749,76.746727 363.167755,76.935143 
	C361.637482,77.040970 360.103912,77.112625 358.577454,77.258827 
	C353.290619,77.765244 351.884277,80.389626 354.846008,84.688354 
	C359.176300,90.973541 363.723358,97.109406 368.410034,103.587631 
z"/>
<path fill="#F8F8F8" opacity="1.000000" stroke="none" 
	d="
M277.904602,134.191208 
	C270.598602,118.403694 263.381775,102.989243 256.313538,87.506927 
	C253.675781,81.729164 250.269928,77.167076 243.228058,76.390022 
	C255.021027,76.390022 266.813995,76.390022 278.606934,76.390022 
	C278.642670,76.527283 278.678436,76.664551 278.714172,76.801811 
	C277.736511,76.969894 276.764191,77.237602 275.780334,77.290245 
	C268.063568,77.703079 266.416138,80.317345 269.636383,87.562347 
	C273.596649,96.472221 277.734253,105.303215 281.791290,114.170105 
	C282.892395,116.576637 283.875488,119.046501 285.142700,121.361427 
	C285.477081,121.972267 286.668488,122.113968 287.639008,122.548370 
	C285.874054,127.166916 283.773102,132.664658 281.110626,139.631729 
	C279.575806,137.074707 278.814301,135.806000 277.904602,134.191208 
z"/>
<path fill="#F5F5F5" opacity="1.000000" stroke="none" 
	d="
M375.347382,76.545502 
	C385.743561,76.111946 396.145599,76.111946 405.471527,76.111946 
	C399.581421,79.904457 392.938599,84.181595 387.180145,87.889351 
	C387.099854,86.088585 388.047577,82.263329 386.585236,80.716721 
	C384.633911,78.652893 380.820557,78.328407 377.783875,77.326736 
	C377.018707,77.074326 376.165833,77.087776 375.347382,76.545502 
z"/>
<path fill="#F4F4F4" opacity="1.000000" stroke="none" 
	d="
M301.886261,85.967255 
	C301.786163,79.945770 297.604156,78.301399 293.274658,76.306366 
	C301.414429,76.306366 309.554230,76.306366 317.694000,76.306366 
	C308.294037,78.317337 305.155243,86.578568 300.356384,94.173279 
	C300.975433,90.997467 301.427917,88.676140 301.886261,85.967255 
z"/>
</svg>